<?xml version="1.0" encoding="iso-8859-1"?>
<!-- Generator: Adobe Illustrator 19.0.0, SVG Export Plug-In . SVG Version: 6.00 Build 0)  -->
<svg version="1.1" id="Layer_1" xmlns="http://www.w3.org/2000/svg" xmlns:xlink="http://www.w3.org/1999/xlink" x="0px" y="0px"
	 viewBox="0 0 512.001 512.001" style="enable-background:new 0 0 512.001 512.001;" xml:space="preserve">
<path style="fill:#AA968C;" d="M255.926,61.879c-90.865,0-173.47,33.042-173.47,33.042v181.731
	c0,66.084,43.368,96.028,90.865,132.168h165.21c47.498-36.14,90.865-66.084,90.865-132.168V94.921
	C429.396,94.921,346.792,61.879,255.926,61.879z"/>
<g>
	<circle style="fill:#464655;" cx="165.055" cy="227.092" r="24.781"/>
	<circle style="fill:#464655;" cx="346.797" cy="227.092" r="24.781"/>
</g>
<path style="fill:#AA968C;" d="M280.708,466.643h-49.563c-36.497,0-66.084-29.587-66.084-66.084v-66.084h181.731v66.084
	C346.792,437.056,317.205,466.643,280.708,466.643z"/>
<path style="fill:#D2BEAF;" d="M255.926,243.61L255.926,243.61c-15.573,0-30.091,7.763-38.682,20.751
	c-21.519,32.534-60.444,93.201-60.444,106.337c0,18.156,33.042,81.7,99.126,45.389c66.084,36.311,99.126-27.234,99.126-45.389
	c0-13.137-38.924-73.803-60.444-106.337C286.017,251.372,271.499,243.61,255.926,243.61z"/>
<path style="fill:#464655;" d="M297.229,339.065c0,20.276-41.302,36.714-41.302,36.714s-41.302-16.437-41.302-36.714
	c0-20.276,18.492-29.37,41.302-29.37S297.229,318.788,297.229,339.065z"/>
<g>
	<path style="fill:#8C7873;" d="M143.053,99.072L75.631,267.623c-3.899,9.747-17.35,10.635-22.497,1.486l-48.443-86.12
		c-7.802-13.87-5.726-31.195,5.133-42.829l82.931-88.855c7.687-8.237,20.856-7.866,28.068,0.789l18.257,21.909
		C144.908,80.996,146.432,90.62,143.053,99.072z"/>
	<path style="fill:#8C7873;" d="M368.949,99.072l67.421,168.552c3.899,9.747,17.35,10.635,22.497,1.486l48.442-86.12
		c7.802-13.87,5.726-31.195-5.133-42.829l-82.931-88.855c-7.687-8.237-20.856-7.866-28.068,0.789l-18.257,21.908
		C367.094,80.996,365.569,90.62,368.949,99.072z"/>
</g>
<g>
</g>
<g>
</g>
<g>
</g>
<g>
</g>
<g>
</g>
<g>
</g>
<g>
</g>
<g>
</g>
<g>
</g>
<g>
</g>
<g>
</g>
<g>
</g>
<g>
</g>
<g>
</g>
<g>
</g>
</svg>
